<svg width="24" height="24" xmlns="http://www.w3.org/2000/svg" xmlns:xlink="http://www.w3.org/1999/xlink" fill-rule="evenodd" clip-rule="evenodd">
    <a href="https://github.com/Visionary-Code-Works/VideoSeries/tree/main/part-01-intro-to-python">
        <path d="M12 0c-6.627 0-12 5.373-12 12 0 5.302 3.438 9.8 8.207 11.387.6.111.793-.261.793-.579 0-.287-.011-1.046-.017-2.051-3.338.725-4.042-1.609-4.042-1.609-.546-1.387-1.333-1.756-1.333-1.756-1.089-.745.083-.729.083-.729 1.205.085 1.839 1.237 1.839 1.237 1.071 1.835 2.809 1.305 3.494.998.108-.776.419-1.305.762-1.605-2.665-.303-5.467-1.332-5.467-5.931 0-1.31.469-2.381 1.236-3.22-.124-.303-.536-1.521.117-3.169 0 0 1.008-.323 3.3 1.23.957-.266 1.983-.399 3.003-.404 1.02.005 2.047.138 3.006.404 2.29-1.553 3.295-1.23 3.295-1.23.654 1.648.243 2.866.119 3.169.77.839 1.235 1.91 1.235 3.22 0 4.609-2.807 5.625-5.479 5.921.431.371.815 1.102.815 2.221 0 1.605-.015 2.898-.015 3.293 0 .32.19.694.8.577C20.565 21.795 24 17.298 24 12c0-6.627-5.373-12-12-12z"/>
        <text x="26" y="17" font-family="Verdana" font-size="10" fill="black">GitHub Link</text>
    </a>
</svg>
